<svg xmlns="http://www.w3.org/2000/svg" version="1.1" xmlns:xlink="http://www.w3.org/1999/xlink" xmlns:svgjs="http://svgjs.dev/svgjs" width="1000" height="1000" viewBox="0 0 1000 1000"><rect width="1000" height="1000" fill="#000000"></rect><g transform="matrix(0.7,0,0,0.7,149.57575757575756,403.54513761467894)"><svg viewBox="0 0 396 109" data-background-color="#f5ba41" preserveAspectRatio="xMidYMid meet" height="275" width="1000" xmlns="http://www.w3.org/2000/svg" xmlns:xlink="http://www.w3.org/1999/xlink"><g id="tight-bounds" transform="matrix(1,0,0,1,0.2400000000000091,0.11599999999998545)"><svg viewBox="0 0 395.52 108.768" height="108.768" width="395.52"><g><svg viewBox="0 0 395.52 108.768" height="108.768" width="395.52"><g><svg viewBox="0 0 395.52 108.768" height="108.768" width="395.52"><g id="textblocktransform"><svg viewBox="0 0 395.52 108.768" height="108.768" width="395.52" id="textblock"><g><svg viewBox="0 0 395.52 108.768" height="108.768" width="395.52"><g transform="matrix(1,0,0,1,0,0)"><svg width="395.52" viewBox="3.15 -29.6 143.98999999999998 39.6" height="108.768" data-palette-color="#fbeaab"><path d="M12.4-29.6L12.4-29.6Q18.6-29.6 21.2-26.85L21.2-26.85 20.2-25.75Q17.8-28.1 12.6-28.1L12.6-28.1Q4.8-28.1 4.8-21.9L4.8-21.9Q4.8-19.5 6.7-18.07 8.6-16.65 11.33-15.9 14.05-15.15 16.78-14.33 19.5-13.5 21.4-11.68 23.3-9.85 23.3-6.9L23.3-6.9Q23.3-3.45 20.45-1.4 17.6 0.65 12.2 0.65L12.2 0.65Q9.55 0.65 6.98-0.05 4.4-0.75 3.15-2.1L3.15-2.1 4.15-3.2Q6.7-0.85 12-0.85L12-0.85Q16.85-0.85 19.33-2.65 21.8-4.45 21.8-6.85L21.8-6.85Q21.8-9.35 19.9-10.9 18-12.45 15.28-13.23 12.55-14 9.83-14.83 7.1-15.65 5.2-17.4 3.3-19.15 3.3-22L3.3-22Q3.3-25.85 5.88-27.73 8.45-29.6 12.4-29.6ZM45.8-12.4L43-10.8 42.25-12.1 45.05-13.7Q48.5-15.6 48.5-19.75L48.5-19.75Q48.5-27.5 36.7-27.5L36.7-27.5 32.1-27.5 32.1 10 30.6 10 30.6-29 36.7-29Q43.3-29 46.65-26.58 50-24.15 50-19.75L50-19.75Q50-14.75 45.8-12.4L45.8-12.4ZM57.05 0L57.05-29 58.55-29 58.55 0 57.05 0ZM69.54 0L68.04 0 68.04-29 69.54-29 85.84-2.75 85.84-29 87.34-29 87.34 0 85.84 0 69.54-26.3 69.54 0ZM111.44-27.48Q109.74-28 107.24-28 104.74-28 103.04-27.48 101.34-26.95 99.92-25.53 98.49-24.1 97.79-21.38 97.09-18.65 97.09-14.5 97.09-10.35 97.79-7.63 98.49-4.9 99.92-3.48 101.34-2.05 103.04-1.53 104.74-1 107.24-1 109.74-1 111.44-1.53 113.14-2.05 114.56-3.48 115.99-4.9 116.69-7.63 117.39-10.35 117.39-14.5 117.39-18.65 116.69-21.38 115.99-24.1 114.56-25.53 113.14-26.95 111.44-27.48ZM116.19-3.05Q113.49 0.5 107.24 0.5 100.99 0.5 98.29-3.05 95.59-6.6 95.59-14.5 95.59-22.4 98.29-25.95 100.99-29.5 107.24-29.5 113.49-29.5 116.19-25.95 118.89-22.4 118.89-14.5 118.89-6.6 116.19-3.05ZM130.94 0L130.94 0 127.14 0 127.14-29 130.94-29Q138.34-29 142.74-25.1 147.14-21.2 147.14-14.5 147.14-7.8 142.74-3.9 138.34 0 130.94 0ZM128.64-1.5L130.94-1.5Q137.69-1.5 141.66-4.95 145.64-8.4 145.64-14.5 145.64-20.6 141.66-24.05 137.69-27.5 130.94-27.5L130.94-27.5 128.64-27.5 128.64-1.5Z" opacity="1" transform="matrix(1,0,0,1,0,0)" fill="#ffffff" class="wordmark-text-0" data-fill-palette-color="primary" id="text-0"></path></svg></g></svg></g></svg></g></svg></g></svg></g><defs></defs></svg><rect width="395.52" height="108.768" fill="none" stroke="none" visibility="hidden"></rect></g></svg></g></svg>